<?xml version="1.0" encoding="utf-8"?>
<!-- Generator: Adobe Illustrator 22.1.0, SVG Export Plug-In . SVG Version: 6.00 Build 0)  -->
<svg version="1.1" id="Layer_1" xmlns="http://www.w3.org/2000/svg" xmlns:xlink="http://www.w3.org/1999/xlink" x="0px" y="0px"
	 viewBox="0 0 100 125" style="enable-background:new 0 0 100 125;" xml:space="preserve">
<style type="text/css">
	.st0{fill:#82CA9C;}
</style>
<g>
	<path class="st0" d="M20.2,37.8v51.7c0,5,4.1,9.1,9,9.1h43.6c1.2,0,2.4-1.1,2.4-2.4V43.5c0-1.4-0.8-2.3-2.1-2.6
		c-2.1-0.4-3.8-2-3.8-4.3c0-2.3,1.6-4.1,3.8-4.3c1.1-0.1,2.1-1.2,2.1-2.3v0c0-1.3-1.1-2.4-2.4-2.4H29.5
		C23.3,27.5,20.2,32.7,20.2,37.8L20.2,37.8z M29.3,32.2h36.6c-0.8,1.3-1.3,2.7-1.3,4.4c0,1.6,0.5,3,1.3,4.3H29.3
		c-2.5,0-4.3-1.9-4.3-4.3C24.9,34.1,26.8,32.2,29.3,32.2L29.3,32.2z M24.9,44.5c1,0.5,2,0.9,3.1,1v16.7c0,0.9,0.6,1.8,1.4,2.2
		c0.9,0.4,1.9,0.2,2.6-0.5l7.8-7.4l7.8,7.4c0.7,0.6,1.7,0.8,2.6,0.5c0.8-0.4,1.4-1.3,1.4-2.2V45.6h18.8v48.1H29.3
		c-2.5,0-4.3-1.9-4.3-4.4L24.9,44.5L24.9,44.5z M32.8,45.6H47v11.1l-5.5-5.1c-0.9-0.8-2.4-0.8-3.3,0l-5.4,5.1V45.6z"/>
</g>
</svg>
